# xmcd
#
# Track frame offsets: 
#        150
#        18717
#        38848
#        54218
#        72334
#        95019
#        109999
#        127261
#        146843
#        167564
#        182394
#        198504
#
# Disc length: 2878 seconds
#
# Revision: 0
# Processed by: cddbd v1.5.2PL0 Copyright (c) Steve Scherf et al.
# Submitted via: ExactAudioCopy v1.2
#
DISCID=af0b3c0c
DTITLE=Charlie Landsborough - With You In Mind
DYEAR=1996
DGENRE=Country
TTITLE0=No Time At All
TTITLE1=How Do You Do Those Things
TTITLE2=Part Of Me
TTITLE3=Shine Your Light
TTITLE4=The Isle Of Innisfree
TTITLE5=Down To Earth
TTITLE6=I Will Love You All My Life
TTITLE7=Heaven Knows
TTITLE8=If Only
TTITLE9=I Say You
TTITLE10=Irish Waltz
TTITLE11=You Stand All Alone
EXTD=
EXTT0=
EXTT1=
EXTT2=
EXTT3=
EXTT4=
EXTT5=
EXTT6=
EXTT7=
EXTT8=
EXTT9=
EXTT10=
EXTT11=
PLAYORDER=
